<?xml version="1.0" standalone="no"?>
<!DOCTYPE svg PUBLIC "-//W3C//DTD SVG 20010904//EN"
 "http://www.w3.org/TR/2001/REC-SVG-20010904/DTD/svg10.dtd">
<svg version="1.0" xmlns="http://www.w3.org/2000/svg"
 width="565.000000pt" height="442.000000pt" viewBox="0 0 565.000000 442.000000"
 preserveAspectRatio="xMidYMid meet">

<g transform="translate(0.000000,442.000000) scale(0.100000,-0.100000)"
fill="#000000" stroke="none">
<path d="M2775 2870 c-4 -6 -10 -8 -15 -5 -5 3 -11 2 -14 -3 -2 -4 6 -8 19 -8
13 0 22 3 19 7 -2 4 2 10 8 12 9 4 10 6 1 6 -6 1 -15 -4 -18 -9z"/>
<path d="M2837 2869 c-9 -6 -15 -14 -12 -19 8 -13 78 -22 102 -13 22 8 22 8
-3 20 -13 6 -24 7 -24 2 0 -5 -14 -9 -31 -9 -18 0 -28 4 -24 10 4 6 11 8 16 5
5 -4 9 -1 9 4 0 14 -10 13 -33 0z"/>
<path d="M2961 2843 c1 -4 0 -10 -1 -13 -7 -18 -6 -58 2 -73 12 -23 48 -37 69
-26 9 5 20 4 26 -2 6 -6 13 -7 16 -2 6 9 -41 68 -49 60 -3 -2 2 -12 11 -21 15
-15 15 -16 -2 -16 -32 0 -57 24 -50 49 3 13 1 19 -6 14 -6 -4 -8 0 -4 10 3 9
2 19 -4 22 -5 4 -9 3 -8 -2z"/>
<path d="M2707 2829 c7 -7 15 -10 18 -7 3 3 -2 9 -12 12 -14 6 -15 5 -6 -5z"/>
<path d="M2745 2830 c-4 -6 -4 -14 -1 -17 3 -4 6 -2 6 4 0 10 24 10 50 0 8 -3
24 -8 35 -11 11 -3 -20 -3 -70 -2 -95 3 -121 -6 -108 -40 4 -11 3 -15 -5 -10
-6 3 -14 1 -18 -5 -4 -8 -3 -9 4 -5 16 10 25 -50 21 -146 l-4 -83 100 3 c69 1
95 -1 85 -8 -8 -5 -10 -10 -4 -10 6 0 14 3 18 7 4 4 45 8 92 9 47 1 88 4 91 8
4 4 7 48 8 99 l0 92 -38 -4 c-51 -4 -69 13 -65 62 2 40 2 40 -37 42 -22 2 -51
5 -65 8 -14 3 -39 9 -56 12 -20 5 -34 3 -39 -5z m-59 -45 c-8 -8 -18 -15 -22
-15 -3 0 -1 7 6 15 7 8 17 15 22 15 5 0 3 -7 -6 -15z"/>
<path d="M2616 2723 c-3 -4 -6 -13 -5 -22 0 -12 3 -10 8 4 6 15 10 8 15 -32 4
-29 5 -57 1 -63 -3 -5 -1 -10 5 -10 15 0 9 118 -7 124 -6 3 -14 2 -17 -1z"/>
<path d="M3073 2693 c-16 -6 -17 -29 -1 -39 7 -4 8 -3 4 4 -11 18 5 14 19 -4
11 -16 12 -16 18 0 5 11 3 15 -5 10 -7 -5 -9 -2 -5 9 4 12 2 14 -10 10 -11 -4
-14 -2 -9 5 8 13 7 13 -11 5z"/>
<path d="M3075 2620 c-8 -13 5 -13 25 0 13 8 13 10 -2 10 -9 0 -20 -4 -23 -10z"/>
<path d="M3107 2611 c-17 -18 -17 -18 10 -18 15 0 22 2 15 4 -10 4 -10 8 -1
19 17 20 -3 16 -24 -5z"/>
<path d="M2602 2576 c2 -15 7 -27 12 -27 16 0 15 25 -1 40 -13 11 -14 10 -11
-13z"/>
<path d="M3060 2590 c0 -5 5 -10 11 -10 5 0 7 5 4 10 -3 6 -8 10 -11 10 -2 0
-4 -4 -4 -10z"/>
<path d="M3056 2561 c-4 -5 -2 -12 3 -15 5 -4 12 -2 15 3 4 5 2 12 -3 15 -5 4
-12 2 -15 -3z"/>
<path d="M2596 2530 c6 -8 13 -21 15 -28 3 -8 9 -5 17 9 8 12 9 18 2 14 -6 -4
-19 -1 -28 7 -15 11 -15 11 -6 -2z"/>
<path d="M2577 2507 c-3 -8 1 -14 8 -14 7 0 11 6 8 14 -3 7 -6 13 -8 13 -2 0
-5 -6 -8 -13z"/>
<path d="M2682 2503 c-6 -2 -10 -9 -6 -14 3 -5 0 -9 -5 -9 -6 0 -11 5 -11 10
0 6 -4 10 -10 10 -5 0 -7 -6 -4 -13 3 -8 -2 -20 -11 -27 -8 -7 -15 -19 -15
-26 0 -8 -6 -14 -14 -14 -15 0 -16 16 -2 38 10 16 2 27 -13 17 -6 -3 -11 -17
-11 -30 0 -13 -5 -27 -12 -31 -6 -4 -8 -3 -4 4 12 20 -16 25 -32 6 -10 -10
-10 -13 -2 -6 20 18 29 15 23 -8 -3 -11 -9 -18 -13 -15 -5 3 -6 -4 -3 -16 3
-11 12 -23 19 -26 16 -6 20 -93 4 -93 -16 0 -23 27 -12 46 7 12 6 22 -3 31
-17 16 -27 17 -23 1 1 -7 -2 -23 -6 -36 -6 -19 -10 -21 -22 -11 -12 10 -13 9
-8 -5 3 -9 12 -16 19 -16 30 0 45 -29 38 -78 -3 -26 -9 -48 -14 -50 -4 -2 4
-15 17 -29 13 -14 24 -33 24 -41 0 -13 -3 -12 -14 3 -13 18 -14 18 -9 -7 3
-17 10 -25 18 -21 8 2 22 0 31 -5 27 -15 81 19 67 41 -3 6 5 18 18 29 21 17
21 18 2 9 l-21 -11 0 149 c0 116 3 148 13 145 7 -3 15 2 19 11 3 9 0 18 -9 21
-21 8 -19 27 5 44 30 22 26 37 -8 23z m-13 -62 c23 -23 19 -30 -13 -24 -17 4
-22 10 -19 24 7 24 8 24 32 0z m-99 -57 c0 -8 -5 -12 -10 -9 -6 4 -8 11 -5 16
9 14 15 11 15 -7z m0 -260 c0 -14 -3 -14 -15 -4 -8 7 -15 14 -15 16 0 2 7 4
15 4 8 0 15 -7 15 -16z"/>
<path d="M2740 2502 c0 -4 9 -8 20 -8 11 0 20 4 20 8 0 4 -9 8 -20 8 -11 0
-20 -4 -20 -8z"/>
<path d="M2975 2500 c-3 -5 -1 -10 5 -10 6 0 8 -5 5 -10 -4 -6 -10 -8 -15 -5
-17 11 -22 -17 -6 -33 15 -15 16 -15 11 -1 -3 9 3 23 14 33 11 10 18 23 15 27
-7 12 -21 11 -29 -1z"/>
<path d="M2923 2485 c0 -8 4 -15 9 -15 4 0 8 4 8 9 0 6 -4 12 -8 15 -5 3 -9
-1 -9 -9z"/>
<path d="M2705 2470 c-3 -5 -1 -18 5 -27 9 -15 10 -14 4 6 -4 17 -3 21 6 16 9
-5 11 -4 6 3 -9 15 -13 15 -21 2z"/>
<path d="M2486 2332 c-3 -6 -1 -14 5 -17 14 -9 20 -2 10 14 -6 8 -11 9 -15 3z"/>
<path d="M3196 2325 c4 -9 0 -15 -9 -15 -24 0 -29 -17 -7 -23 11 -3 18 -1 15
3 -3 5 -1 11 5 15 13 8 13 35 0 35 -5 0 -7 -7 -4 -15z"/>
<path d="M2857 2261 c-3 -11 -1 -23 3 -26 14 -8 22 13 12 31 -8 14 -10 14 -15
-5z"/>
<path d="M3064 2255 c-10 -8 -14 -15 -7 -15 6 0 14 4 17 9 3 5 16 7 28 3 14
-3 19 -2 14 6 -10 16 -28 15 -52 -3z"/>
<path d="M3189 2258 c7 -10 10 -32 7 -55 l-5 -38 10 38 c10 34 9 41 -7 55 -17
16 -17 16 -5 0z"/>
<path d="M2480 2250 c-14 -9 -7 -14 13 -11 5 1 5 -4 1 -11 -10 -16 -13 -48 -3
-43 11 8 21 57 12 66 -5 5 -15 4 -23 -1z"/>
<path d="M3027 2223 c7 -38 7 -45 -1 -72 -6 -16 -5 -21 3 -17 6 4 11 3 11 -3
0 -5 -5 -13 -11 -17 -8 -4 -7 -9 2 -15 11 -6 11 -12 0 -32 -7 -13 -19 -24 -26
-24 -8 0 -12 4 -9 9 3 4 1 8 -5 8 -5 0 -13 -4 -16 -10 -12 -19 -26 -11 -15 9
15 30 13 46 -4 31 -8 -6 -13 -17 -10 -24 3 -8 -2 -20 -10 -29 -13 -13 -14 -18
-3 -29 8 -7 19 -30 26 -50 9 -28 16 -35 28 -31 14 6 14 8 -3 15 -12 5 -6 6 19
3 31 -5 37 -3 39 12 0 10 2 25 3 33 1 8 -2 24 -6 36 -7 21 2 23 75 15 4 -1 5
-13 2 -28 -5 -23 -4 -25 5 -10 6 10 8 25 5 33 -4 9 0 14 9 12 7 -2 13 -1 13 2
-1 3 4 16 11 30 l12 25 -19 -25 -20 -24 1 27 c1 15 6 27 11 27 5 0 3 6 -3 13
-6 8 -8 16 -5 20 3 3 3 24 -1 47 l-7 42 -48 -4 c-35 -2 -46 0 -43 10 3 6 0 12
-5 12 -6 0 -8 -12 -5 -27z"/>
<path d="M2507 2190 c-3 -11 -2 -20 3 -20 12 0 21 28 11 35 -5 2 -11 -4 -14
-15z"/>
<path d="M3147 2192 c1 -8 3 -22 3 -33 0 -10 5 -19 10 -19 6 0 10 14 10 31 0
16 -4 28 -9 25 -5 -4 -11 -3 -14 1 -2 5 -2 2 0 -5z"/>
<path d="M2999 2153 c-13 -16 -12 -17 4 -4 16 13 21 21 13 21 -2 0 -10 -8 -17
-17z"/>
<path d="M3185 2150 c3 -5 8 -10 11 -10 2 0 4 5 4 10 0 6 -5 10 -11 10 -5 0
-7 -4 -4 -10z"/>
<path d="M2720 2080 c0 -6 -5 -8 -12 -4 -7 4 -8 3 -4 -4 5 -8 -1 -12 -15 -12
-12 0 -19 -3 -16 -7 4 -3 -5 -15 -20 -25 -22 -14 -24 -18 -9 -18 12 0 16 -5
12 -16 -8 -22 11 -54 29 -48 8 4 15 1 15 -6 0 -6 -4 -9 -9 -6 -5 3 -11 0 -14
-8 -4 -10 0 -12 14 -9 13 4 19 1 17 -7 -2 -7 3 -14 10 -15 8 -3 9 -2 1 2 -8 4
-5 11 9 22 17 12 22 29 24 71 l3 55 -35 -2 c-28 -2 -32 -1 -17 8 9 5 22 7 27
4 6 -3 10 1 10 9 0 8 -4 18 -10 21 -5 3 -10 1 -10 -5z m15 -140 c3 -5 -1 -10
-9 -10 -9 0 -16 5 -16 10 0 6 4 10 9 10 6 0 13 -4 16 -10z"/>
<path d="M2520 2060 c6 -11 13 -20 16 -20 2 0 0 9 -6 20 -6 11 -13 20 -16 20
-2 0 0 -9 6 -20z"/>
<path d="M2757 2059 c7 -7 15 -10 18 -7 3 3 -2 9 -12 12 -14 6 -15 5 -6 -5z"/>
<path d="M2910 2060 c-8 -5 -12 -12 -9 -15 4 -3 12 1 19 10 14 17 11 19 -10 5z"/>
<path d="M2815 2039 c-16 -4 -25 -7 -20 -8 6 -1 3 -6 -5 -11 -11 -7 -11 -10
-2 -10 7 0 10 -5 7 -10 -4 -6 -11 -7 -17 -4 -6 4 -8 1 -6 -7 3 -8 11 -13 17
-11 6 1 11 -3 11 -9 0 -6 -9 -8 -21 -4 -15 5 -19 4 -15 -4 7 -10 146 -17 146
-7 0 2 3 12 7 22 5 13 3 16 -10 11 -11 -4 -17 -1 -17 9 0 8 5 12 10 9 14 -8
12 7 -3 25 -13 17 -36 19 -82 9z"/>
<path d="M3050 2031 c0 -5 5 -13 10 -16 6 -3 10 -2 10 4 0 5 -4 13 -10 16 -5
3 -10 2 -10 -4z"/>
<path d="M2573 2011 c2 -11 7 -24 12 -28 4 -5 5 -2 0 6 -5 9 -3 12 6 9 8 -3
13 -12 11 -21 -2 -11 2 -15 13 -11 21 8 18 15 -16 42 -28 23 -29 23 -26 3z"/>
<path d="M3086 2004 c-8 -20 -8 -24 2 -24 4 0 8 9 9 20 2 24 -3 26 -11 4z"/>
<path d="M2920 1960 c0 -5 5 -10 11 -10 5 0 7 5 4 10 -3 6 -8 10 -11 10 -2 0
-4 -4 -4 -10z"/>
<path d="M2790 1930 l-35 -7 40 -1 c22 0 65 3 95 8 l55 7 -60 0 c-33 0 -76 -3
-95 -7z"/>
<path d="M2995 1910 c-10 -11 -14 -20 -9 -20 5 0 17 9 27 20 9 11 13 20 8 20
-4 0 -16 -9 -26 -20z"/>
<path d="M2908 1913 c6 -2 18 -2 25 0 6 3 1 5 -13 5 -14 0 -19 -2 -12 -5z"/>
<path d="M2824 1889 c-16 -10 -24 -19 -17 -19 6 0 15 5 18 10 3 6 11 10 16 10
6 0 8 -4 5 -9 -5 -7 29 -8 89 -2 l20 2 -20 8 c-11 5 -28 4 -37 -1 -11 -5 -18
-5 -18 1 0 18 -28 19 -56 0z"/>
<path d="M2763 1893 c9 -2 25 -2 35 0 9 3 1 5 -18 5 -19 0 -27 -2 -17 -5z"/>
<path d="M2759 1788 c-1 -24 0 -51 1 -61 1 -9 -4 -16 -11 -15 -7 2 -15 -5 -17
-14 -2 -10 2 -18 8 -18 7 0 10 7 7 14 -4 10 -1 13 9 9 11 -4 14 7 14 61 0 72
-9 92 -11 24z"/>
<path d="M3091 1802 c0 -26 1 -26 9 -4 5 12 15 22 22 22 8 0 9 -3 3 -8 -5 -4
-11 -14 -13 -22 -2 -11 2 -10 12 4 14 18 17 18 40 3 18 -12 27 -14 32 -5 4 7
3 8 -4 4 -7 -4 -12 -3 -12 3 0 5 6 12 13 15 6 3 -1 3 -18 0 -20 -4 -26 -2 -17
4 9 6 0 9 -28 10 -38 2 -40 0 -39 -26z"/>
<path d="M2730 1805 c0 -8 5 -15 10 -15 6 0 10 7 10 15 0 8 -4 15 -10 15 -5 0
-10 -7 -10 -15z"/>
<path d="M1856 1793 c-6 -14 -5 -15 5 -6 7 7 10 15 7 18 -3 3 -9 -2 -12 -12z"/>
<path d="M1875 1779 c-4 -11 -12 -18 -19 -16 -7 3 -17 -3 -24 -13 -10 -17 -9
-17 20 -3 25 13 32 13 39 2 6 -9 9 -10 9 -2 0 6 -4 14 -10 18 -5 3 -7 12 -3
20 3 8 3 15 0 15 -3 0 -9 -9 -12 -21z"/>
<path d="M3211 1791 c0 -8 -8 -22 -17 -32 -10 -11 -12 -19 -5 -24 6 -3 11 0
11 9 0 8 5 16 11 18 6 2 9 13 6 23 -2 11 -5 14 -6 6z"/>
<path d="M2735 1770 c-3 -5 -1 -10 4 -10 6 0 11 5 11 10 0 6 -2 10 -4 10 -3 0
-8 -4 -11 -10z"/>
<path d="M3115 1753 c2 -13 0 -25 -6 -28 -5 -4 -5 -13 0 -23 10 -20 3 -45 -10
-36 -22 13 -6 -5 17 -21 17 -11 24 -12 18 -4 -4 8 -9 26 -10 41 -2 22 2 28 24
31 26 4 26 4 -3 6 -19 1 -25 4 -18 9 10 6 10 12 -2 28 -14 18 -14 18 -10 -3z"/>
<path d="M2190 1740 c0 -5 5 -10 10 -10 6 0 10 5 10 10 0 6 -4 10 -10 10 -5 0
-10 -4 -10 -10z"/>
<path d="M2517 1743 c-10 -9 -9 -23 1 -23 5 0 9 7 9 15 0 17 -1 18 -10 8z"/>
<path d="M3320 1740 c-12 -8 -9 -9 12 -8 15 1 24 6 22 10 -7 10 -16 10 -34 -2z"/>
<path d="M3500 1744 c0 -6 11 -17 25 -24 14 -7 25 -17 25 -22 0 -4 5 -8 10 -8
18 0 10 19 -11 25 -17 6 -19 9 -8 17 11 8 11 9 -2 5 -9 -3 -22 0 -28 6 -7 7
-11 7 -11 1z"/>
<path d="M3805 1740 c-16 -7 -17 -9 -3 -9 9 -1 20 4 23 9 7 11 7 11 -20 0z"/>
<path d="M1988 1733 c6 -2 9 -10 6 -15 -5 -7 -2 -8 6 -3 9 6 12 4 8 -7 -4 -8
-2 -21 3 -29 6 -10 9 -2 7 24 -2 30 -6 37 -23 36 -11 0 -14 -3 -7 -6z"/>
<path d="M2165 1731 c-3 -5 -2 -12 3 -15 5 -3 9 1 9 9 0 17 -3 19 -12 6z"/>
<path d="M2386 1728 c3 -4 12 -8 20 -8 8 0 14 4 14 8 0 4 -9 8 -19 8 -11 0
-17 -4 -15 -8z"/>
<path d="M2567 1729 c7 -7 15 -10 18 -7 3 3 -2 9 -12 12 -14 6 -15 5 -6 -5z"/>
<path d="M2650 1721 c-6 -11 -6 -22 -1 -25 5 -3 11 5 13 19 6 30 2 32 -12 6z"/>
<path d="M2839 1733 c-1 -5 -2 -15 -3 -23 0 -8 -7 -14 -13 -12 -18 3 -16 -3 4
-19 10 -8 14 -9 10 -2 -4 6 -2 15 4 18 5 4 8 13 5 20 -3 8 0 16 7 19 9 3 9 5
0 5 -7 1 -14 -2 -14 -6z"/>
<path d="M1907 1706 c10 -13 19 -23 21 -21 5 5 -22 45 -31 45 -4 0 0 -11 10
-24z"/>
<path d="M2676 1713 c-6 -14 -5 -15 5 -6 7 7 10 15 7 18 -3 3 -9 -2 -12 -12z"/>
<path d="M3285 1708 c-4 -11 -2 -25 3 -30 7 -7 10 -5 8 8 -2 11 4 22 12 25 14
5 14 6 -1 12 -11 4 -18 -1 -22 -15z"/>
<path d="M3370 1715 c-10 -12 -10 -15 0 -15 7 0 10 -6 7 -13 -3 -8 3 -14 14
-14 17 -2 18 0 4 14 -9 9 -14 22 -11 29 7 18 2 18 -14 -1z"/>
<path d="M2060 1711 c0 -5 5 -13 10 -16 6 -3 10 -2 10 4 0 5 -4 13 -10 16 -5
3 -10 2 -10 -4z"/>
<path d="M2135 1709 c-10 -15 3 -25 16 -12 7 7 7 13 1 17 -6 3 -14 1 -17 -5z"/>
<path d="M2477 1713 c-12 -12 -7 -30 8 -30 17 0 18 6 7 25 -5 7 -11 9 -15 5z"/>
<path d="M2557 1708 c6 -7 13 -28 17 -47 5 -27 3 -31 -7 -23 -10 8 -13 6 -14
-8 -2 -27 14 -35 25 -13 13 26 3 91 -15 98 -12 4 -13 2 -6 -7z"/>
<path d="M3685 1710 c-3 -5 -3 -10 2 -10 4 0 1 -5 -7 -11 -12 -8 -12 -10 -1
-7 8 2 15 12 17 21 3 19 -2 22 -11 7z"/>
<path d="M1813 1703 c4 -6 0 -13 -8 -17 -19 -7 -9 -33 13 -33 15 0 15 1 0 11
-15 9 -15 11 -1 21 13 10 13 14 3 20 -8 5 -11 4 -7 -2z"/>
<path d="M2908 1683 c2 -12 6 -23 7 -23 1 0 5 11 7 23 3 14 0 24 -7 24 -7 0
-10 -10 -7 -24z"/>
<path d="M3200 1695 c-10 -12 -9 -16 4 -21 9 -3 13 -11 9 -17 -3 -6 -1 -7 5
-3 8 5 9 13 2 25 -5 10 -6 21 -3 25 3 3 4 6 1 6 -3 0 -11 -7 -18 -15z"/>
<path d="M2256 1683 c-6 -14 -5 -15 5 -6 7 7 10 15 7 18 -3 3 -9 -2 -12 -12z"/>
<path d="M3460 1692 c0 -7 -4 -11 -9 -8 -4 3 -8 -6 -7 -21 1 -20 7 -27 26 -29
14 -1 20 0 13 2 -7 3 -10 11 -7 19 3 8 1 22 -5 32 -6 11 -11 13 -11 5z m6 -38
c-4 -9 -9 -15 -11 -12 -3 3 -3 13 1 22 4 9 9 15 11 12 3 -3 3 -13 -1 -22z"/>
<path d="M2033 1671 c-10 -16 -9 -19 5 -16 9 2 20 4 25 4 4 1 7 6 7 12 0 5 -4
8 -9 5 -5 -4 -11 -2 -13 4 -2 6 -8 2 -15 -9z"/>
<path d="M3806 1682 c-4 -7 -5 -12 -2 -12 2 0 11 -3 20 -6 9 -3 16 -1 16 6 0
6 -4 9 -9 6 -5 -4 -11 -1 -13 6 -3 9 -6 9 -12 0z"/>
<path d="M2137 1674 c-8 -8 1 -24 14 -24 5 0 9 7 9 15 0 15 -12 20 -23 9z"/>
<path d="M3542 1654 c-1 -14 2 -23 7 -20 5 4 8 13 7 21 -4 25 -12 25 -14 -1z"/>
<path d="M1907 1663 c-3 -5 6 -9 20 -10 19 -1 22 1 12 8 -17 11 -26 11 -32 2z"/>
<path d="M2330 1660 c0 -5 -6 -8 -12 -6 -7 1 -10 1 -5 -1 4 -3 5 -8 2 -13 -3
-4 4 -6 14 -3 12 3 17 11 14 19 -6 16 -13 18 -13 4z"/>
<path d="M2490 1650 c0 -11 4 -20 9 -20 5 0 7 9 4 20 -3 11 -7 20 -9 20 -2 0
-4 -9 -4 -20z"/>
<path d="M3686 1658 c3 -5 10 -6 15 -3 13 9 11 12 -6 12 -8 0 -12 -4 -9 -9z"/>
<path d="M2749 1650 c0 -3 -3 -16 -5 -30 -4 -24 -4 -24 13 -8 13 14 15 21 5
30 -7 7 -12 10 -13 8z"/>
<path d="M2836 1641 c-4 -5 -2 -12 3 -15 5 -4 12 -2 15 3 4 5 2 12 -3 15 -5 4
-12 2 -15 -3z"/>
<path d="M3723 1635 c0 -8 4 -12 9 -9 5 3 6 10 3 15 -9 13 -12 11 -12 -6z"/>
<path d="M3844 1639 c-4 -7 -3 -9 4 -5 5 3 13 0 15 -6 4 -9 6 -10 6 -1 1 17
-16 25 -25 12z"/>
<path d="M1777 1633 c-12 -11 -8 -23 7 -23 8 0 16 7 20 15 5 15 -14 21 -27 8z"/>
<path d="M1932 1622 c8 -9 14 -10 16 -3 2 6 9 8 15 4 7 -3 9 -2 4 2 -4 5 -16
9 -27 10 -16 1 -17 -1 -8 -13z"/>
<path d="M2240 1630 c-9 -6 -10 -10 -3 -10 6 0 15 5 18 10 8 12 4 12 -15 0z"/>
<path d="M2373 1633 c9 -2 25 -2 35 0 9 3 1 5 -18 5 -19 0 -27 -2 -17 -5z"/>
<path d="M2650 1636 c0 -2 8 -10 18 -17 15 -13 16 -12 3 4 -13 16 -21 21 -21
13z"/>
<path d="M2716 1623 c-6 -14 -5 -15 5 -6 7 7 10 15 7 18 -3 3 -9 -2 -12 -12z"/>
<path d="M3093 1625 c0 -8 4 -15 9 -15 4 0 8 4 8 9 0 6 -4 12 -8 15 -5 3 -9
-1 -9 -9z"/>
<path d="M3156 1623 c-6 -14 -5 -15 5 -6 7 7 10 15 7 18 -3 3 -9 -2 -12 -12z"/>
<path d="M3370 1630 c-13 -8 -13 -10 2 -10 9 0 20 5 23 10 8 13 -5 13 -25 0z"/>
<path d="M2210 1621 c0 -7 -5 -9 -12 -5 -7 5 -8 3 -3 -5 5 -9 10 -10 18 -2 6
6 8 14 4 18 -4 3 -7 1 -7 -6z"/>
<path d="M2530 1621 c0 -7 -4 -9 -10 -6 -5 3 -10 1 -10 -4 0 -6 4 -11 9 -11
13 0 25 20 17 27 -3 4 -6 1 -6 -6z"/>
<path d="M3320 1620 c-14 -4 -18 -9 -10 -10 8 -1 23 -3 32 -5 11 -2 15 2 11
11 -3 8 -6 14 -7 13 0 -1 -12 -5 -26 -9z"/>
<path d="M3503 1615 c0 -8 4 -12 9 -9 5 3 6 10 3 15 -9 13 -12 11 -12 -6z"/>
<path d="M3790 1620 c0 -12 28 -21 35 -11 2 5 -4 11 -15 14 -11 3 -20 2 -20
-3z"/>
<path d="M2390 1610 c-9 -6 -10 -10 -3 -10 6 0 15 5 18 10 8 12 4 12 -15 0z"/>
</g>
</svg>
